<mxfile host="app.diagrams.net" agent="Mozilla/5.0 (Windows NT 10.0; Win64; x64) AppleWebKit/537.36 (KHTML, like Gecko) Chrome/136.0.0.0 Safari/537.36" version="27.0.6">
  <diagram name="Page-1" id="lWvluPi9-Hj8U3aZbSh-">
    <mxGraphModel dx="2479" dy="928" grid="1" gridSize="10" guides="1" tooltips="1" connect="1" arrows="1" fold="1" page="1" pageScale="1" pageWidth="850" pageHeight="1100" math="0" shadow="0">
      <root>
        <mxCell id="0" />
        <mxCell id="1" parent="0" />
        <mxCell id="qgB80KNSfU-ogqLkDalf-20" style="edgeStyle=orthogonalEdgeStyle;rounded=0;orthogonalLoop=1;jettySize=auto;html=1;entryX=1;entryY=0.5;entryDx=0;entryDy=0;fillColor=#6a00ff;strokeColor=#9E15CC;opacity=90;" edge="1" parent="1" source="qgB80KNSfU-ogqLkDalf-2" target="qgB80KNSfU-ogqLkDalf-3">
          <mxGeometry relative="1" as="geometry" />
        </mxCell>
        <mxCell id="qgB80KNSfU-ogqLkDalf-22" style="edgeStyle=orthogonalEdgeStyle;rounded=0;orthogonalLoop=1;jettySize=auto;html=1;entryX=0;entryY=0.5;entryDx=0;entryDy=0;fillColor=#6a00ff;strokeColor=#9E15CC;opacity=90;" edge="1" parent="1" source="qgB80KNSfU-ogqLkDalf-2" target="qgB80KNSfU-ogqLkDalf-9">
          <mxGeometry relative="1" as="geometry" />
        </mxCell>
        <mxCell id="qgB80KNSfU-ogqLkDalf-23" style="edgeStyle=orthogonalEdgeStyle;rounded=0;orthogonalLoop=1;jettySize=auto;html=1;entryX=1;entryY=0.5;entryDx=0;entryDy=0;fillColor=#6a00ff;strokeColor=#9E15CC;opacity=90;" edge="1" parent="1" source="qgB80KNSfU-ogqLkDalf-2" target="qgB80KNSfU-ogqLkDalf-4">
          <mxGeometry relative="1" as="geometry" />
        </mxCell>
        <mxCell id="qgB80KNSfU-ogqLkDalf-24" style="edgeStyle=orthogonalEdgeStyle;rounded=0;orthogonalLoop=1;jettySize=auto;html=1;entryX=0;entryY=0.5;entryDx=0;entryDy=0;fillColor=#6a00ff;strokeColor=#9E15CC;opacity=90;" edge="1" parent="1" source="qgB80KNSfU-ogqLkDalf-2" target="qgB80KNSfU-ogqLkDalf-10">
          <mxGeometry relative="1" as="geometry" />
        </mxCell>
        <mxCell id="qgB80KNSfU-ogqLkDalf-25" style="edgeStyle=orthogonalEdgeStyle;rounded=0;orthogonalLoop=1;jettySize=auto;html=1;entryX=1;entryY=0.5;entryDx=0;entryDy=0;fillColor=#6a00ff;strokeColor=#9E15CC;opacity=90;" edge="1" parent="1" source="qgB80KNSfU-ogqLkDalf-2" target="qgB80KNSfU-ogqLkDalf-5">
          <mxGeometry relative="1" as="geometry" />
        </mxCell>
        <mxCell id="qgB80KNSfU-ogqLkDalf-26" style="edgeStyle=orthogonalEdgeStyle;rounded=0;orthogonalLoop=1;jettySize=auto;html=1;entryX=0;entryY=0.5;entryDx=0;entryDy=0;fillColor=#6a00ff;strokeColor=#9E15CC;opacity=90;" edge="1" parent="1" source="qgB80KNSfU-ogqLkDalf-2" target="qgB80KNSfU-ogqLkDalf-11">
          <mxGeometry relative="1" as="geometry" />
        </mxCell>
        <mxCell id="qgB80KNSfU-ogqLkDalf-2" value="Directeur Transformation Digitale" style="rounded=0;whiteSpace=wrap;html=1;fillColor=#F200FF;strokeColor=#9E15CC;fontColor=#ffffff;opacity=90;" vertex="1" parent="1">
          <mxGeometry x="320" y="220" width="160" height="60" as="geometry" />
        </mxCell>
        <mxCell id="qgB80KNSfU-ogqLkDalf-3" value="&lt;div&gt;&lt;span style=&quot;font-size:11.0pt;line-height:107%;&lt;br/&gt;font-family:&amp;quot;Aptos&amp;quot;,sans-serif;mso-ascii-theme-font:minor-latin;mso-fareast-font-family:&lt;br/&gt;Aptos;mso-fareast-theme-font:minor-latin;mso-hansi-theme-font:minor-latin;&lt;br/&gt;mso-bidi-font-family:&amp;quot;Times New Roman&amp;quot;;mso-bidi-theme-font:minor-bidi;&lt;br/&gt;mso-ansi-language:FR-MA;mso-fareast-language:EN-US;mso-bidi-language:AR-SA&quot;&gt;DÃ©veloppement&lt;/span&gt;&lt;/div&gt;" style="rounded=0;whiteSpace=wrap;html=1;fillColor=#F200FF;strokeColor=#9E15CC;fontColor=#ffffff;opacity=90;" vertex="1" parent="1">
          <mxGeometry x="160" y="320" width="160" height="60" as="geometry" />
        </mxCell>
        <mxCell id="qgB80KNSfU-ogqLkDalf-4" value="&lt;span style=&quot;font-size:11.0pt;line-height:107%;&lt;br/&gt;font-family:&amp;quot;Aptos&amp;quot;,sans-serif;mso-ascii-theme-font:minor-latin;mso-fareast-font-family:&lt;br/&gt;Aptos;mso-fareast-theme-font:minor-latin;mso-hansi-theme-font:minor-latin;&lt;br/&gt;mso-bidi-font-family:&amp;quot;Times New Roman&amp;quot;;mso-bidi-theme-font:minor-bidi;&lt;br/&gt;mso-ansi-language:FR-MA;mso-fareast-language:EN-US;mso-bidi-language:AR-SA&quot;&gt;Data&lt;br/&gt;Engineering&lt;/span&gt;" style="rounded=0;whiteSpace=wrap;html=1;fillColor=#F200FF;strokeColor=#9E15CC;fontColor=#ffffff;opacity=90;" vertex="1" parent="1">
          <mxGeometry x="160" y="390" width="160" height="60" as="geometry" />
        </mxCell>
        <mxCell id="qgB80KNSfU-ogqLkDalf-27" style="edgeStyle=orthogonalEdgeStyle;rounded=0;orthogonalLoop=1;jettySize=auto;html=1;fillColor=#6a00ff;strokeColor=#9E15CC;opacity=90;" edge="1" parent="1" source="qgB80KNSfU-ogqLkDalf-5">
          <mxGeometry relative="1" as="geometry">
            <mxPoint x="130" y="490" as="targetPoint" />
          </mxGeometry>
        </mxCell>
        <mxCell id="qgB80KNSfU-ogqLkDalf-5" value="&lt;span style=&quot;font-size:11.0pt;line-height:107%;&lt;br/&gt;font-family:&amp;quot;Aptos&amp;quot;,sans-serif;mso-ascii-theme-font:minor-latin;mso-fareast-font-family:&lt;br/&gt;Aptos;mso-fareast-theme-font:minor-latin;mso-hansi-theme-font:minor-latin;&lt;br/&gt;mso-bidi-font-family:&amp;quot;Times New Roman&amp;quot;;mso-bidi-theme-font:minor-bidi;&lt;br/&gt;mso-ansi-language:FR-MA;mso-fareast-language:EN-US;mso-bidi-language:AR-SA&quot;&gt;Digital&lt;br/&gt;Marketing&lt;/span&gt;" style="rounded=0;whiteSpace=wrap;html=1;fillColor=#F200FF;strokeColor=#9E15CC;fontColor=#ffffff;opacity=90;" vertex="1" parent="1">
          <mxGeometry x="160" y="460" width="160" height="60" as="geometry" />
        </mxCell>
        <mxCell id="qgB80KNSfU-ogqLkDalf-9" value="&lt;div&gt;&lt;span style=&quot;font-size:11.0pt;line-height:107%;&lt;br/&gt;font-family:&amp;quot;Aptos&amp;quot;,sans-serif;mso-ascii-theme-font:minor-latin;mso-fareast-font-family:&lt;br/&gt;Aptos;mso-fareast-theme-font:minor-latin;mso-hansi-theme-font:minor-latin;&lt;br/&gt;mso-bidi-font-family:&amp;quot;Times New Roman&amp;quot;;mso-bidi-theme-font:minor-bidi;&lt;br/&gt;mso-ansi-language:FR-MA;mso-fareast-language:EN-US;mso-bidi-language:AR-SA&quot;&gt;Contribution&lt;/span&gt;&lt;/div&gt;" style="rounded=0;whiteSpace=wrap;html=1;fillColor=#F200FF;strokeColor=#9E15CC;fontColor=#ffffff;opacity=90;" vertex="1" parent="1">
          <mxGeometry x="480" y="320" width="160" height="60" as="geometry" />
        </mxCell>
        <mxCell id="qgB80KNSfU-ogqLkDalf-10" value="&lt;div&gt;&lt;span style=&quot;font-size:11.0pt;line-height:107%;&lt;br/&gt;font-family:&amp;quot;Aptos&amp;quot;,sans-serif;mso-ascii-theme-font:minor-latin;mso-fareast-font-family:&lt;br/&gt;Aptos;mso-fareast-theme-font:minor-latin;mso-hansi-theme-font:minor-latin;&lt;br/&gt;mso-bidi-font-family:&amp;quot;Times New Roman&amp;quot;;mso-bidi-theme-font:minor-bidi;&lt;br/&gt;mso-ansi-language:FR-MA;mso-fareast-language:EN-US;mso-bidi-language:AR-SA&quot;&gt;Data&lt;br/&gt;Science&lt;/span&gt;&lt;/div&gt;" style="rounded=0;whiteSpace=wrap;html=1;fillColor=#F200FF;strokeColor=#9E15CC;fontColor=#ffffff;opacity=90;" vertex="1" parent="1">
          <mxGeometry x="480" y="390" width="160" height="60" as="geometry" />
        </mxCell>
        <mxCell id="qgB80KNSfU-ogqLkDalf-11" value="&lt;span style=&quot;font-size:11.0pt;line-height:107%;&lt;br/&gt;font-family:&amp;quot;Aptos&amp;quot;,sans-serif;mso-ascii-theme-font:minor-latin;mso-fareast-font-family:&lt;br/&gt;Aptos;mso-fareast-theme-font:minor-latin;mso-hansi-theme-font:minor-latin;&lt;br/&gt;mso-bidi-font-family:&amp;quot;Times New Roman&amp;quot;;mso-bidi-theme-font:minor-bidi;&lt;br/&gt;mso-ansi-language:FR-MA;mso-fareast-language:EN-US;mso-bidi-language:AR-SA&quot;&gt;PMs, POs&lt;/span&gt;" style="rounded=0;whiteSpace=wrap;html=1;fillColor=#F200FF;strokeColor=#9E15CC;fontColor=#ffffff;opacity=90;" vertex="1" parent="1">
          <mxGeometry x="480" y="460" width="160" height="60" as="geometry" />
        </mxCell>
        <mxCell id="qgB80KNSfU-ogqLkDalf-28" value="&lt;span style=&quot;font-size: 14.6667px;&quot;&gt;Stagaire Digital Analytics et CRO&lt;/span&gt;" style="rounded=0;whiteSpace=wrap;html=1;fillColor=#F200FF;strokeColor=#9E15CC;fontColor=#ffffff;opacity=90;" vertex="1" parent="1">
          <mxGeometry x="-30" y="460" width="160" height="60" as="geometry" />
        </mxCell>
      </root>
    </mxGraphModel>
  </diagram>
</mxfile>
